<?xml version="1.0" encoding="utf-8"?>
<!-- Generator: Adobe Illustrator 25.4.1, SVG Export Plug-In . SVG Version: 6.00 Build 0)  -->
<svg version="1.1" id="Capa_1" xmlns="http://www.w3.org/2000/svg" xmlns:xlink="http://www.w3.org/1999/xlink" x="0px" y="0px"
	 viewBox="0 0 561 101.8" style="enable-background:new 0 0 561 101.8;" xml:space="preserve">
<style type="text/css">
	.st0{fill:#212121;}
</style>
<path class="st0" d="M45.8,4.9C42.5,1.6,37.8,0,31.9,0H2.1C1.1-0.1,0.1,0.6,0,1.6c0,0.2,0,0.3,0,0.5v78.7c-0.2,1,0.5,1.9,1.5,2.1
	c0.2,0,0.4,0,0.6,0h29.8c5.9,0,10.5-1.7,13.9-5c3.4-3.3,5-7.9,5-13.8V16.2C50.8,10.2,49.2,8.2,45.8,4.9z M38.9,63.6c0,6-2.9,9-8.7,9
	H13.1c-0.6,0.1-1.2-0.4-1.3-1c0-0.1,0-0.2,0-0.3V11.5c0-0.8,0.4-1.2,1.3-1.2h17.1c5.8,0,8.7,0.4,8.7,6.4V63.6z"/>
<path class="st0" d="M71.6,21h-7.8c-1.3,0-1.9,0.7-1.9,2.1v57.7c-0.1,1,0.6,1.9,1.6,2.1c0.1,0,0.3,0,0.4,0h7.8
	c0.5,0.1,1.1-0.1,1.5-0.4c0.3-0.5,0.5-1.1,0.4-1.6V23.1c0.1-1-0.5-1.9-1.5-2.1C71.9,21,71.8,21,71.6,21z"/>
<path class="st0" d="M71.7,0.3h-7.9c-0.9-0.1-1.8,0.5-1.9,1.5c0,0.2,0,0.3,0,0.5v8.5c0,1.4,0.6,2,1.9,2h7.9c1.3,0,1.9-0.7,1.9-2V2.2
	c0.1-0.9-0.5-1.8-1.5-1.9C72,0.3,71.9,0.3,71.7,0.3z"/>
<path class="st0" d="M129.7,21h-27.2c-5.9,0-10.5,1.6-13.8,4.9c-3.3,3.3-5,7.9-5,13.9V61c0,6,1.6,10.6,4.7,13.9
	c3.1,3.3,7.6,4.9,13.4,4.9h5.5c6.1,0,10.2-2.2,12.3-6.6h0.5v9.2c0,6-2.9,9-8.9,9h-21c-1-0.1-1.9,0.5-2.1,1.5c0,0.2,0,0.4,0,0.5v6.3
	c0,1.3,0.7,1.9,2.1,1.9h22.8c5.9,0,10.5-1.6,13.9-4.9c3.4-3.3,5-7.9,5-13.8v-60C131.9,21.7,131.1,21,129.7,21z M120,59.2
	c0,6.8-3.3,10.2-9.9,10.2h-5.8c-5.7,0-8.6-3-8.6-9V40.3c0-6,2.9-9,8.6-9h14.4c0.9,0,1.3,0.4,1.3,1.2V59.2z"/>
<path class="st0" d="M152.6,0.3h-7.9c-0.9-0.2-1.8,0.5-2,1.4c0,0.2,0,0.4,0,0.6v8.5c0,1.4,0.6,2,2,2h7.9c1.3,0,1.9-0.7,1.9-2V2.2
	c0.1-0.9-0.5-1.8-1.5-1.9C152.9,0.3,152.8,0.3,152.6,0.3z"/>
<path class="st0" d="M152.5,21h-7.8c-1.3,0-2,0.7-2,2.1v57.7c-0.1,1,0.5,1.9,1.5,2.1c0.2,0,0.3,0,0.5,0h7.8c0.5,0.1,1.1-0.1,1.5-0.4
	c0.3-0.5,0.5-1.1,0.4-1.6V23.1c0.1-1-0.6-1.9-1.6-2.1C152.8,21,152.6,21,152.5,21z"/>
<path class="st0" d="M194.4,72.5h-4.7c-6.1,0-9.1-2.9-9.1-8.8V32.5c0-0.8,0.4-1.2,1.3-1.2h11.3c1.4,0,2.2-0.7,2.2-1.9v-6.3
	c0-1.4-0.7-2.1-2.2-2.1h-11.3c-0.9,0-1.3-0.4-1.3-1.2V2.4c0.1-1-0.5-1.9-1.5-2.1c-0.2,0-0.3,0-0.5,0h-7.6c-1.5,0-2.2,0.7-2.2,2.1
	v17.4c0.1,0.6-0.3,1.1-0.9,1.2c-0.1,0-0.2,0-0.3,0h-5.8c-1-0.1-1.9,0.5-2.1,1.5c0,0.2,0,0.3,0,0.5v6.3c-0.1,0.5,0.1,1.1,0.4,1.5
	c0.5,0.3,1.1,0.5,1.6,0.4h5.8c0.6-0.1,1.1,0.3,1.2,0.9c0,0.1,0,0.2,0,0.3v31.8c0,5.9,1.7,10.5,5.1,13.7s8.1,4.9,14.1,4.9h6.6
	c1.5,0,2.2-0.6,2.2-1.9v-6.4C196.5,73.2,195.8,72.5,194.4,72.5z"/>
<path class="st0" d="M248.1,21h-27.2c-6,0-10.6,1.6-13.9,4.9c-3.3,3.3-4.9,7.9-4.9,13.9v24.3c0,5.9,1.6,10.5,4.9,13.8s7.9,5,13.9,5
	h4.7c6.2,0,10.3-2.1,12.2-6.4h0.5v4.4c-0.1,1,0.6,1.9,1.6,2.1c0.2,0,0.3,0,0.5,0h7.6c1.5,0,2.2-0.7,2.2-2.1V23.1
	C250.3,21.7,249.5,21,248.1,21z M238.4,62.2c0,6.9-3.3,10.3-9.9,10.3h-5.8c-5.8,0-8.7-3-8.7-9V40.3c0-6,2.9-9,8.7-9H237
	c0.9,0,1.3,0.4,1.3,1.2L238.4,62.2z"/>
<path class="st0" d="M270.9,0.2h-7.6c-1-0.1-1.9,0.6-2.1,1.6c0,0.2,0,0.3,0,0.5v78.6c-0.1,1,0.6,1.9,1.6,2.1c0.2,0,0.3,0,0.5,0h7.6
	c1,0.1,1.9-0.6,2.1-1.6c0-0.2,0-0.3,0-0.5V2.2c0.1-1-0.6-1.9-1.6-2.1C271.2,0.1,271.1,0.1,270.9,0.2z"/>
<path class="st0" d="M333.9,0h-3.5c-0.8,0-1.2,0.5-1.2,1.5v38c0,0.7-0.4,1.1-1.2,1.1h-34c-0.8,0-1.2-0.4-1.2-1.1v-38
	c0-1-0.5-1.5-1.4-1.5h-3.5c-0.8,0-1.2,0.5-1.2,1.5v79.9c0,1,0.4,1.5,1.2,1.5h3.5c0.9,0,1.4-0.5,1.4-1.5V47.1c0-0.7,0.4-1.1,1.2-1.1
	h34c0.8,0,1.2,0.4,1.2,1.1v34.3c0,1,0.4,1.5,1.2,1.5h3.5c0.9,0,1.3-0.5,1.3-1.5V1.5C335.2,0.5,334.7,0,333.9,0z"/>
<path class="st0" d="M376,21h-10.4c-5.3,0-9.4,1.5-12.4,4.6s-4.5,7.3-4.6,12.6v27.4c0,5.3,1.5,9.5,4.5,12.6c3,3.1,7.2,4.6,12.4,4.7
	H376c5.3,0,9.4-1.5,12.5-4.6s4.6-7.3,4.6-12.6V38.2c0-5.3-1.5-9.5-4.6-12.6S381.2,21,376,21z M387,65.5c0,3.8-1,6.7-3,8.8
	s-4.8,3.1-8.5,3.1H366c-3.7,0-6.6-1-8.5-3.1s-2.9-5-2.9-8.8V38.3c0-3.8,1-6.7,2.9-8.8s4.8-3.1,8.5-3.1h9.5c3.7,0,6.6,1,8.5,3.1
	c2,2,3,5,3,8.8L387,65.5z"/>
<path class="st0" d="M447.2,21h-3.5c-0.9,0-1.3,0.5-1.3,1.5v43.1c0,3.8-1.1,6.7-3.3,8.8c-2.2,2.1-5.3,3.1-9.2,3.1H422
	c-3.7,0-6.5-1-8.5-3.2s-2.9-5.1-2.9-8.8v-43c0-1-0.5-1.5-1.3-1.5h-3.5c-0.8,0-1.2,0.5-1.2,1.5v43.2c0,5.3,1.5,9.5,4.5,12.6
	c3,3.1,7.1,4.6,12.2,4.7h8c6.3,0,10.5-2.1,12.6-6.3h0.5v4.9c0,1,0.4,1.5,1.3,1.5h3.5c0.8,0,1.2-0.5,1.2-1.5v-59
	C448.4,21.5,448,21,447.2,21z"/>
<path class="st0" d="M487.8,51.1L472.6,45c-2.1-0.6-4.1-1.8-5.8-3.3c-1.3-1.5-2-3.4-1.9-5.3v-2.8c0-2,0.9-3.8,2.5-5.1
	c1.7-1.5,4.1-2.2,7.5-2.2h19c0.9,0,1.3-0.4,1.3-1.2v-2.8c0.1-0.6-0.4-1.2-1-1.3c-0.1,0-0.2,0-0.3,0h-19.6
	c-10.4,0-15.6,4.7-15.6,14.2c0,3.9,0.9,6.9,2.6,9.1c1.7,2.2,4.7,4.1,8.8,5.7l15.1,5.8c4.5,1.6,6.8,5,6.8,10.3V69
	c0,5.7-3.6,8.5-10.9,8.5h-20.5c-0.9,0-1.3,0.4-1.3,1.2v2.8c-0.1,0.6,0.3,1.2,1,1.3c0.1,0,0.2,0,0.3,0h21.1c5.7,0,9.8-1.2,12.6-3.5
	c2.7-2.3,4.1-5.9,4.1-10.8c0-4.8-0.7-8.6-2.1-11.3C494.8,54.5,492,52.4,487.8,51.1z"/>
<path class="st0" d="M535.4,21h-10.4c-5.3,0-9.4,1.5-12.4,4.6c-3,3.1-4.5,7.3-4.5,12.6v27.4c0,5.3,1.5,9.5,4.5,12.6
	c3,3.1,7.2,4.6,12.4,4.7h25.4c0.6,0.1,1.2-0.4,1.3-1c0-0.1,0-0.2,0-0.3v-2.8c0.1-0.6-0.4-1.2-1-1.3c-0.1,0-0.2,0-0.3,0h-24.9
	c-3.7,0-6.5-1-8.5-3.1s-2.9-5-2.9-8.8v-9.3c-0.1-0.5,0.4-1,0.9-1.1c0.1,0,0.1,0,0.2,0H551c0.7,0.1,1.4-0.4,1.5-1.1
	c0-0.1,0-0.2,0-0.4V38.2c0-5.3-1.5-9.5-4.6-12.6C544.8,22.5,540.6,21,535.4,21z M546.4,49.1c0.1,0.5-0.3,1-0.9,1.1
	c-0.1,0-0.1,0-0.2,0h-30.2c-0.5,0.1-1-0.4-1.1-0.9c0-0.1,0-0.1,0-0.2V38.3c0-3.8,1-6.7,2.9-8.8s4.8-3.1,8.5-3.1h9.6
	c3.7,0,6.5,1,8.5,3.1s2.9,5,2.9,8.8L546.4,49.1z"/>
</svg>
